<svg width="228" height="46" viewBox="0 0 228 46" fill="none" xmlns="http://www.w3.org/2000/svg">
<path d="M8.24 37H0.368L4.64 2.032H12.512L8.24 37ZM22.8088 16.408C24.0088 14.808 25.3208 13.632 26.7448 12.88C28.1688 12.112 29.6408 11.728 31.1608 11.728C32.1848 11.728 33.1208 11.936 33.9688 12.352C34.8328 12.768 35.5448 13.376 36.1048 14.176C36.6808 14.976 37.0888 15.968 37.3288 17.152C37.5688 18.32 37.5928 19.664 37.4008 21.184L35.5288 37H28.0888L29.9608 21.184C30.0408 20.512 30.0648 19.944 30.0328 19.48C30.0168 19.016 29.9368 18.648 29.7928 18.376C29.6488 18.104 29.4488 17.912 29.1928 17.8C28.9368 17.672 28.6328 17.608 28.2808 17.608C27.7368 17.608 27.1688 17.776 26.5768 18.112C25.9848 18.448 25.4168 18.928 24.8728 19.552C24.3448 20.16 23.8568 20.904 23.4088 21.784C22.9608 22.648 22.6088 23.608 22.3528 24.664L20.9848 37H13.5448L16.5208 12.112H20.3608C21.1288 12.112 21.7288 12.296 22.1608 12.664C22.5928 13.016 22.8088 13.6 22.8088 14.416V16.408ZM48.7651 40.6C49.5011 40.6 50.1811 40.504 50.8051 40.312C51.4291 40.12 51.9571 39.848 52.3891 39.496C52.8371 39.16 53.1811 38.752 53.4211 38.272C53.6771 37.792 53.8051 37.256 53.8051 36.664C53.8051 36.568 53.8051 36.472 53.8051 36.376C53.8051 36.28 53.7971 36.192 53.7811 36.112C52.1491 35.84 50.7571 35.712 49.6051 35.728C48.4691 35.744 47.5491 35.864 46.8451 36.088C46.1411 36.296 45.6291 36.584 45.3091 36.952C44.9891 37.304 44.8291 37.696 44.8291 38.128C44.8291 38.944 45.1251 39.56 45.7171 39.976C46.3251 40.392 47.3411 40.6 48.7651 40.6ZM50.8291 24.976C51.4211 24.976 51.9331 24.824 52.3651 24.52C52.8131 24.216 53.1811 23.824 53.4691 23.344C53.7571 22.848 53.9731 22.296 54.1171 21.688C54.2771 21.08 54.3651 20.464 54.3811 19.84C54.3811 18.8 54.1651 17.992 53.7331 17.416C53.3011 16.84 52.6371 16.552 51.7411 16.552C51.1491 16.552 50.6291 16.696 50.1811 16.984C49.7491 17.256 49.3891 17.624 49.1011 18.088C48.8131 18.552 48.5971 19.088 48.4531 19.696C48.3091 20.304 48.2371 20.936 48.2371 21.592C48.2371 22.648 48.4531 23.48 48.8851 24.088C49.3171 24.68 49.9651 24.976 50.8291 24.976ZM64.8931 13.024L64.5571 15.352C64.4131 16.264 63.9491 16.88 63.1651 17.2L61.0531 17.92C61.1491 18.432 61.1971 18.976 61.1971 19.552C61.1971 20.576 61.0531 21.448 60.7651 22.168C60.4931 22.888 60.1891 23.568 59.8531 24.208C59.5171 24.848 59.2051 25.504 58.9171 26.176C58.6451 26.848 58.5091 27.64 58.5091 28.552C58.5091 29.208 58.6131 29.816 58.8211 30.376C59.0451 30.92 59.2851 31.48 59.5411 32.056C59.7971 32.632 60.0291 33.24 60.2371 33.88C60.4611 34.52 60.5731 35.256 60.5731 36.088C60.5571 37.368 60.2691 38.576 59.7091 39.712C59.1491 40.864 58.3411 41.864 57.2851 42.712C56.2291 43.576 54.9331 44.256 53.3971 44.752C51.8611 45.264 50.1091 45.52 48.1411 45.52C46.5251 45.52 45.0771 45.352 43.7971 45.016C42.5171 44.68 41.4291 44.224 40.5331 43.648C39.6531 43.072 38.9731 42.384 38.4931 41.584C38.0131 40.8 37.7731 39.952 37.7731 39.04C37.7731 37.84 38.0371 36.808 38.5651 35.944C39.0931 35.08 39.7891 34.368 40.6531 33.808C41.5171 33.232 42.5011 32.792 43.6051 32.488C44.7091 32.168 45.8371 31.952 46.9891 31.84C48.1411 31.712 49.2611 31.68 50.3491 31.744C51.4371 31.792 52.4051 31.896 53.2531 32.056C53.2051 31.672 53.1811 31.272 53.1811 30.856C53.1811 29.976 53.3971 29.008 53.8291 27.952C53.2211 28.368 52.5091 28.696 51.6931 28.936C50.8771 29.176 49.8691 29.296 48.6691 29.296C47.7251 29.296 46.8211 29.144 45.9571 28.84C45.0931 28.52 44.3251 28.04 43.6531 27.4C42.9971 26.76 42.4691 25.96 42.0691 25C41.6691 24.024 41.4691 22.872 41.4691 21.544C41.4691 20.312 41.7011 19.112 42.1651 17.944C42.6451 16.76 43.3491 15.712 44.2771 14.8C45.2211 13.872 46.3811 13.128 47.7571 12.568C49.1491 12.008 50.7651 11.728 52.6051 11.728C53.5651 11.728 54.4771 11.84 55.3411 12.064C56.2051 12.272 57.0051 12.592 57.7411 13.024H64.8931ZM74.2078 17.248C74.8158 16.176 75.4638 15.256 76.1518 14.488C76.8398 13.72 77.5438 13.128 78.2638 12.712C78.9998 12.28 79.7438 12.04 80.4958 11.992C81.2638 11.928 82.0318 12.072 82.7998 12.424L81.4558 19.312C80.5438 18.928 79.6878 18.752 78.8878 18.784C78.1038 18.816 77.3758 19.088 76.7038 19.6C76.0478 20.112 75.4478 20.88 74.9038 21.904C74.3758 22.928 73.9198 24.24 73.5358 25.84L72.1918 37H64.8958L67.9198 12.112H71.7598C72.5278 12.112 73.1278 12.296 73.5598 12.664C73.9918 13.016 74.2078 13.6 74.2078 14.416V17.248ZM92.8693 12.112L89.8933 37H82.5493L85.5253 12.112H92.8693ZM94.2613 5.296C94.2613 5.888 94.1333 6.448 93.8773 6.976C93.6213 7.488 93.2853 7.944 92.8693 8.344C92.4533 8.728 91.9733 9.04 91.4293 9.28C90.9013 9.504 90.3573 9.616 89.7973 9.616C89.2373 9.616 88.7013 9.504 88.1893 9.28C87.6773 9.04 87.2213 8.728 86.8213 8.344C86.4373 7.944 86.1253 7.488 85.8853 6.976C85.6453 6.448 85.5253 5.888 85.5253 5.296C85.5253 4.704 85.6453 4.144 85.8853 3.616C86.1253 3.088 86.4453 2.624 86.8453 2.224C87.2613 1.824 87.7253 1.512 88.2373 1.288C88.7493 1.048 89.2853 0.927999 89.8453 0.927999C90.4213 0.927999 90.9733 1.04 91.5013 1.264C92.0293 1.488 92.4933 1.8 92.8933 2.2C93.3093 2.6 93.6373 3.064 93.8773 3.592C94.1333 4.12 94.2613 4.688 94.2613 5.296ZM111.387 18.232C110.923 17.848 110.403 17.584 109.827 17.44C109.267 17.28 108.731 17.2 108.219 17.2C107.355 17.2 106.555 17.488 105.819 18.064C105.099 18.64 104.475 19.4 103.947 20.344C103.419 21.272 103.003 22.336 102.699 23.536C102.411 24.736 102.267 25.96 102.267 27.208C102.267 28.792 102.499 29.944 102.963 30.664C103.427 31.368 104.043 31.72 104.811 31.72C105.323 31.72 105.851 31.528 106.395 31.144C106.955 30.76 107.491 30.232 108.003 29.56C108.531 28.888 109.019 28.104 109.467 27.208C109.931 26.296 110.323 25.32 110.643 24.28L111.387 18.232ZM120.843 1.072L116.379 37H112.395C111.931 37 111.539 36.944 111.219 36.832C110.915 36.704 110.667 36.536 110.475 36.328C110.299 36.12 110.171 35.872 110.091 35.584C110.027 35.296 109.995 34.984 109.995 34.648V32.56C108.859 34.064 107.603 35.248 106.227 36.112C104.851 36.96 103.387 37.384 101.835 37.384C100.811 37.384 99.8751 37.208 99.0271 36.856C98.1791 36.488 97.4431 35.92 96.8191 35.152C96.2111 34.384 95.7311 33.408 95.3791 32.224C95.0431 31.024 94.8751 29.592 94.8751 27.928C94.8751 26.488 95.0271 25.088 95.3311 23.728C95.6351 22.352 96.0591 21.064 96.6031 19.864C97.1471 18.664 97.7951 17.568 98.5471 16.576C99.2991 15.568 100.123 14.712 101.019 14.008C101.931 13.288 102.891 12.728 103.899 12.328C104.907 11.928 105.947 11.728 107.019 11.728C108.059 11.728 108.987 11.896 109.803 12.232C110.619 12.568 111.339 13.024 111.963 13.6L113.547 1.072H120.843ZM144.718 18.544C145.838 18.544 146.79 18.376 147.574 18.04C148.358 17.688 148.99 17.224 149.47 16.648C149.966 16.072 150.318 15.4 150.526 14.632C150.75 13.864 150.862 13.056 150.862 12.208C150.862 11.552 150.766 10.96 150.574 10.432C150.382 9.888 150.078 9.432 149.662 9.064C149.262 8.68 148.75 8.384 148.126 8.176C147.518 7.968 146.798 7.864 145.966 7.864H143.182L141.862 18.544H144.718ZM146.686 2.032C148.83 2.032 150.654 2.264 152.158 2.728C153.678 3.176 154.918 3.8 155.878 4.6C156.838 5.4 157.534 6.352 157.966 7.456C158.414 8.544 158.638 9.728 158.638 11.008C158.638 12.288 158.462 13.512 158.109 14.68C157.774 15.832 157.278 16.896 156.622 17.872C155.966 18.832 155.166 19.688 154.222 20.44C153.278 21.176 152.198 21.784 150.982 22.264C151.462 22.536 151.902 22.872 152.302 23.272C152.702 23.656 153.038 24.128 153.31 24.688L158.398 37H151.342C150.686 37 150.134 36.872 149.686 36.616C149.254 36.344 148.942 35.976 148.75 35.512L144.958 25.168C144.766 24.736 144.526 24.424 144.238 24.232C143.95 24.04 143.518 23.944 142.942 23.944H141.19L139.582 37H131.806L136.078 2.032H146.686ZM169.702 31.864C170.534 31.864 171.278 31.616 171.934 31.12C172.59 30.608 173.142 29.92 173.59 29.056C174.054 28.176 174.406 27.16 174.646 26.008C174.902 24.84 175.03 23.6 175.03 22.288C175.03 20.48 174.782 19.192 174.286 18.424C173.806 17.64 173.014 17.248 171.91 17.248C171.078 17.248 170.334 17.504 169.678 18.016C169.022 18.512 168.462 19.192 167.998 20.056C167.55 20.92 167.198 21.936 166.942 23.104C166.702 24.272 166.582 25.512 166.582 26.824C166.582 28.6 166.822 29.888 167.302 30.688C167.798 31.472 168.598 31.864 169.702 31.864ZM169.03 37.384C167.638 37.384 166.334 37.152 165.118 36.688C163.918 36.224 162.87 35.552 161.974 34.672C161.094 33.776 160.398 32.68 159.886 31.384C159.39 30.072 159.142 28.568 159.142 26.872C159.142 24.664 159.502 22.64 160.222 20.8C160.958 18.944 161.942 17.344 163.174 16C164.406 14.656 165.83 13.608 167.446 12.856C169.078 12.104 170.79 11.728 172.582 11.728C173.974 11.728 175.27 11.96 176.47 12.424C177.67 12.888 178.71 13.568 179.59 14.464C180.486 15.344 181.19 16.44 181.702 17.752C182.214 19.048 182.47 20.544 182.47 22.24C182.47 24.416 182.102 26.432 181.366 28.288C180.646 30.128 179.67 31.728 178.438 33.088C177.206 34.432 175.774 35.488 174.142 36.256C172.526 37.008 170.822 37.384 169.03 37.384ZM201.374 17.344C201.15 17.632 200.942 17.84 200.75 17.968C200.558 18.096 200.302 18.16 199.982 18.16C199.662 18.16 199.342 18.088 199.022 17.944C198.718 17.8 198.382 17.64 198.014 17.464C197.662 17.272 197.254 17.104 196.79 16.96C196.342 16.816 195.822 16.744 195.23 16.744C194.126 16.744 193.334 16.96 192.854 17.392C192.39 17.808 192.158 18.352 192.158 19.024C192.158 19.456 192.286 19.824 192.542 20.128C192.814 20.432 193.166 20.704 193.598 20.944C194.03 21.184 194.518 21.408 195.062 21.616C195.622 21.808 196.19 22.032 196.766 22.288C197.342 22.528 197.902 22.808 198.446 23.128C199.006 23.448 199.502 23.84 199.934 24.304C200.366 24.768 200.71 25.32 200.966 25.96C201.238 26.6 201.374 27.36 201.374 28.24C201.374 29.488 201.126 30.672 200.63 31.792C200.134 32.896 199.422 33.864 198.494 34.696C197.566 35.512 196.438 36.168 195.11 36.664C193.798 37.144 192.318 37.384 190.67 37.384C189.886 37.384 189.11 37.304 188.342 37.144C187.574 36.984 186.846 36.768 186.158 36.496C185.486 36.224 184.87 35.904 184.31 35.536C183.75 35.152 183.294 34.744 182.942 34.312L184.766 31.576C184.99 31.256 185.246 31.008 185.534 30.832C185.838 30.64 186.206 30.544 186.638 30.544C187.038 30.544 187.382 30.64 187.67 30.832C187.958 31.024 188.27 31.232 188.606 31.456C188.942 31.68 189.342 31.888 189.806 32.08C190.27 32.272 190.878 32.368 191.63 32.368C192.686 32.368 193.47 32.136 193.982 31.672C194.494 31.192 194.75 30.632 194.75 29.992C194.75 29.496 194.614 29.088 194.342 28.768C194.086 28.448 193.742 28.176 193.31 27.952C192.878 27.712 192.39 27.504 191.846 27.328C191.302 27.136 190.742 26.928 190.166 26.704C189.59 26.48 189.03 26.224 188.486 25.936C187.942 25.632 187.454 25.256 187.022 24.808C186.59 24.36 186.238 23.808 185.966 23.152C185.71 22.496 185.582 21.704 185.582 20.776C185.582 19.624 185.79 18.504 186.206 17.416C186.638 16.328 187.27 15.368 188.102 14.536C188.95 13.688 189.998 13.008 191.246 12.496C192.494 11.984 193.95 11.728 195.614 11.728C197.278 11.728 198.758 12.016 200.054 12.592C201.366 13.168 202.446 13.872 203.294 14.704L201.374 17.344ZM219.526 16.84C218.31 16.84 217.198 17.112 216.19 17.656C215.198 18.2 214.342 18.944 213.622 19.888C212.902 20.816 212.342 21.904 211.942 23.152C211.558 24.384 211.366 25.704 211.366 27.112C211.366 27.912 211.43 28.592 211.558 29.152C211.686 29.712 211.854 30.168 212.062 30.52C212.286 30.856 212.542 31.104 212.83 31.264C213.134 31.424 213.462 31.504 213.814 31.504C214.358 31.504 214.886 31.304 215.398 30.904C215.91 30.488 216.39 29.928 216.838 29.224C217.302 28.52 217.726 27.696 218.11 26.752C218.494 25.808 218.822 24.8 219.094 23.728L219.982 16.84H219.526ZM218.374 32.848C217.366 34.256 216.23 35.368 214.966 36.184C213.718 36.984 212.342 37.384 210.838 37.384C209.942 37.384 209.078 37.208 208.246 36.856C207.414 36.488 206.678 35.944 206.038 35.224C205.398 34.488 204.886 33.56 204.502 32.44C204.118 31.304 203.926 29.968 203.926 28.432C203.926 26.176 204.334 24.04 205.15 22.024C205.982 19.992 207.134 18.216 208.606 16.696C210.094 15.176 211.854 13.968 213.886 13.072C215.918 12.176 218.15 11.728 220.582 11.728C221.766 11.728 222.966 11.808 224.182 11.968C225.398 12.128 226.598 12.416 227.782 12.832L224.758 37H220.774C220.31 37 219.918 36.944 219.598 36.832C219.294 36.704 219.046 36.536 218.854 36.328C218.678 36.12 218.55 35.872 218.47 35.584C218.406 35.296 218.374 34.984 218.374 34.648V32.848Z" fill="black"/>
</svg>
